<svg width="32" height="32" viewBox="0 0 32 32" fill="none" xmlns="http://www.w3.org/2000/svg">
<g clip-path="url(#clip0_84_354)">
<path d="M32 0H0V32H32V0Z" fill="url(#paint0_linear_84_354)"/>
<path d="M15.906 24.5386C15.54 24.5386 15.2432 24.8351 15.2432 25.2014V27.6308C15.2432 27.9967 15.54 28.2936 15.906 28.2936C16.2719 28.2936 16.5688 27.997 16.5688 27.6308V25.2014C16.5688 24.8354 16.2719 24.5386 15.906 24.5386Z" fill="white"/>
<path d="M27.537 15.3369H25.1076C24.7417 15.3369 24.4448 15.6335 24.4448 15.9997C24.4448 16.366 24.7417 16.6625 25.1076 16.6625H27.537C27.9029 16.6625 28.1998 16.366 28.1998 15.9997C28.1998 15.6335 27.9029 15.3369 27.537 15.3369Z" fill="white"/>
<path d="M7.3673 15.9997C7.3673 15.6338 7.07043 15.3369 6.70449 15.3369H4.27512C3.90918 15.3369 3.6123 15.6335 3.6123 15.9997C3.6123 16.366 3.90918 16.6625 4.27512 16.6625H6.70449C7.07043 16.6625 7.3673 16.366 7.3673 15.9997Z" fill="white"/>
<path d="M22.4125 10.1559C22.5822 10.1559 22.7519 10.0912 22.8813 9.96186L24.5991 8.24404C24.8578 7.98529 24.8578 7.56561 24.5991 7.30686C24.3403 7.04811 23.9206 7.04811 23.6619 7.30686L21.9441 9.02467C21.6853 9.28342 21.6853 9.70311 21.9441 9.96186C22.0734 10.0912 22.2431 10.1559 22.4128 10.1559H22.4125Z" fill="white"/>
<path d="M8.93092 22.0378L7.21311 23.7556C6.95436 24.0144 6.95436 24.4341 7.21311 24.6928C7.34248 24.8222 7.51217 24.8869 7.68186 24.8869C7.85154 24.8869 8.02123 24.8222 8.1506 24.6928L9.86842 22.975C10.1272 22.7162 10.1272 22.2966 9.86842 22.0378C9.60967 21.7791 9.18998 21.7791 8.93123 22.0378H8.93092Z" fill="white"/>
<path d="M22.8813 22.0378C22.6225 21.7791 22.2028 21.7791 21.9441 22.0378C21.6853 22.2966 21.6853 22.7162 21.9441 22.975L23.6619 24.6928C23.7913 24.8222 23.9609 24.8869 24.1306 24.8869C24.3003 24.8869 24.4697 24.8222 24.5994 24.6928C24.8581 24.4341 24.8581 24.0144 24.5994 23.7556L22.8816 22.0378H22.8813Z" fill="white"/>
<path d="M8.15029 7.30686C7.89154 7.04811 7.47186 7.04811 7.21311 7.30686C6.95436 7.56561 6.95436 7.98529 7.21311 8.24404L8.93092 9.96186C9.06029 10.0912 9.22998 10.1559 9.39967 10.1559C9.56936 10.1559 9.73904 10.0912 9.86842 9.96186C10.1272 9.70311 10.1272 9.28342 9.86842 9.02467L8.15061 7.30686H8.15029Z" fill="white"/>
<path d="M17.1205 3.70605H14.6911C14.3252 3.70605 14.0283 4.00293 14.0283 4.36887C14.0283 4.7348 14.3249 5.03168 14.6911 5.03168H15.243V6.79824C15.243 7.16418 15.5399 7.46105 15.9058 7.46105C16.2718 7.46105 16.5686 7.16449 16.5686 6.79824V5.03168H17.1205C17.4864 5.03168 17.7833 4.7348 17.7833 4.36887C17.7833 4.00293 17.4868 3.70605 17.1205 3.70605Z" fill="white"/>
<path d="M19.0691 13.1177L16.801 15.9999V16.0002L15.596 17.5308L14.5325 18.8824H12.7432V14.1874H14.5325V15.8211L15.596 14.4686L16.6597 13.1177H19.0691Z" fill="white"/>
<path d="M15.8721 17.8816L16.6596 18.8823H19.0689L17.0789 16.3535L15.8721 17.8816Z" fill="white"/>
</g>
<defs>
<linearGradient id="paint0_linear_84_354" x1="-0.361563" y1="31.7241" x2="34.0241" y2="-1.32187" gradientUnits="userSpaceOnUse">
<stop stop-color="#0167AA"/>
<stop offset="0.2" stop-color="#0163A4"/>
<stop offset="0.47" stop-color="#015A94"/>
<stop offset="0.76" stop-color="#024A7A"/>
<stop offset="1" stop-color="#033B5F"/>
</linearGradient>
<clipPath id="clip0_84_354">
<rect width="32" height="32" rx="8" fill="white"/>
</clipPath>
</defs>
</svg>
